<?xml version="1.0" encoding="UTF-8" standalone="no"?>
<!-- Created with Inkscape (http://www.inkscape.org/) -->

<svg
   xmlns:dc="http://purl.org/dc/elements/1.1/"
   xmlns:cc="http://creativecommons.org/ns#"
   xmlns:rdf="http://www.w3.org/1999/02/22-rdf-syntax-ns#"
   xmlns:svg="http://www.w3.org/2000/svg"
   xmlns="http://www.w3.org/2000/svg"
   xmlns:xlink="http://www.w3.org/1999/xlink"
   xmlns:sodipodi="http://sodipodi.sourceforge.net/DTD/sodipodi-0.dtd"
   xmlns:inkscape="http://www.inkscape.org/namespaces/inkscape"
   width="210mm"
   height="297mm"
   viewBox="0 0 210 297"
   version="1.1"
   id="svg8"
   inkscape:version="0.92.4 5da689c313, 2019-01-14"
   sodipodi:docname="logo.svg">
  <defs
     id="defs2">
    <linearGradient
       id="linearGradient994"
       inkscape:collect="always">
      <stop
         id="stop990"
         offset="0"
         style="stop-color:#3003bf;stop-opacity:1" />
      <stop
         id="stop992"
         offset="1"
         style="stop-color:#d400aa;stop-opacity:1" />
    </linearGradient>
    <linearGradient
       inkscape:collect="always"
       id="linearGradient928">
      <stop
         style="stop-color:#3003bf;stop-opacity:1"
         offset="0"
         id="stop924" />
      <stop
         style="stop-color:#d400aa;stop-opacity:1"
         offset="1"
         id="stop926" />
    </linearGradient>
    <linearGradient
       inkscape:collect="always"
       xlink:href="#linearGradient994"
       id="linearGradient930"
       x1="175.59512"
       y1="508.94556"
       x2="246.19922"
       y2="480.91382"
       gradientUnits="userSpaceOnUse"
       gradientTransform="matrix(0.84882031,0,0,0.84882031,-149.26307,-408.16983)" />
    <linearGradient
       inkscape:collect="always"
       xlink:href="#linearGradient928"
       id="linearGradient953"
       gradientUnits="userSpaceOnUse"
       x1="175.59512"
       y1="508.94556"
       x2="246.19922"
       y2="480.91382"
       gradientTransform="matrix(0.84882031,0,0,0.84882031,-149.26306,-382.33901)" />
  </defs>
  <sodipodi:namedview
     id="base"
     pagecolor="#ffffff"
     bordercolor="#666666"
     borderopacity="1.0"
     inkscape:pageopacity="0.0"
     inkscape:pageshadow="2"
     inkscape:zoom="2"
     inkscape:cx="151.11555"
     inkscape:cy="1094.7919"
     inkscape:document-units="mm"
     inkscape:current-layer="layer1"
     showgrid="false"
     showguides="true"
     inkscape:guide-bbox="true"
     inkscape:window-width="2560"
     inkscape:window-height="1052"
     inkscape:window-x="1920"
     inkscape:window-y="0"
     inkscape:window-maximized="1" />
  <metadata
     id="metadata5">
    <rdf:RDF>
      <cc:Work
         rdf:about="">
        <dc:format>image/svg+xml</dc:format>
        <dc:type
           rdf:resource="http://purl.org/dc/dcmitype/StillImage" />
        <dc:title />
      </cc:Work>
    </rdf:RDF>
  </metadata>
  <g
     inkscape:label="Layer 1"
     inkscape:groupmode="layer"
     id="layer1">
    <path
       style="fill:url(#linearGradient930);fill-opacity:1;stroke-width:0.84882027"
       d="M 0,0 V 4.7746102 H 4.7746135 V 0 Z M 9.5492269,0 V 4.7746102 9.5492205 H 14.32384 V 4.7746102 h 4.774617 V 0 H 14.32384 Z M 19.098457,4.7746102 V 9.5492205 H 14.32384 v 4.7746425 h 4.774617 4.774613 V 9.5492205 4.7746102 Z M 14.32384,14.323863 H 9.5492269 v 4.77461 H 4.7746135 v 4.77461 H 9.5492269 14.32384 v -4.77461 z m -9.5492265,4.77461 v -4.77461 H 9.5492269 V 9.5492205 H 4.7746135 0 v 4.7746425 4.77461 z M 24.839596,0.00166823 V 14.322195 h 5.140999 c 1.604882,0 2.842351,-0.349174 3.711934,-1.046111 0.869572,-0.696936 1.303066,-1.68546 1.303066,-2.964257 0,-0.9718735 -0.265057,-1.7796189 -0.79577,-2.4254174 -0.5243,-0.6521828 -1.262185,-1.081881 -2.214883,-1.2864962 0.792847,-0.1280047 1.392871,-0.4502624 1.802076,-0.9681845 0.409217,-0.517922 0.615064,-1.2145696 0.615064,-2.0905522 0,-1.1317354 -0.399378,-2.0039324 -1.198628,-2.61774575 C 32.404213,0.30961757 31.265285,0.00166823 29.788287,0.00166823 Z m 13.475021,0 V 14.322195 h 1.938028 V 0.00166823 Z m 3.808088,0 V 1.6330073 h 5.082977 V 14.322195 h 1.946317 V 1.6330073 h 5.082974 V 0.00166823 Z M 26.775969,1.5948625 h 2.868077 c 0.946308,0 1.65009,0.1790142 2.110449,0.5371389 0.466755,0.3580604 0.699615,0.8972204 0.699615,1.6197256 0,0.7289214 -0.232847,1.2732786 -0.699615,1.6313069 -0.460359,0.3516763 -1.164141,0.5272257 -2.110449,0.5272257 h -2.868077 z m 0,5.8886689 h 3.108472 c 1.042206,0 1.812317,0.2133413 2.311041,0.6415958 0.505125,0.4219987 0.757641,1.0810148 0.757641,1.9761818 0,0.888751 -0.252513,1.551328 -0.757641,1.986095 C 31.696758,12.515819 30.926647,12.729 29.884441,12.729 h -3.108472 z m 2.551433,6.8453036 c -1.390844,0 -2.487486,0.426458 -3.287522,1.279856 -0.800039,0.849258 -1.198628,2.012787 -1.198628,3.489782 0,1.472889 0.398589,2.636385 1.198628,3.489782 0.800036,0.849259 1.896678,1.273215 3.287522,1.273215 0.541566,0 1.054355,-0.07283 1.538486,-0.220399 0.488224,-0.147575 0.949417,-0.369386 1.384309,-0.664791 v -1.299746 c -0.418486,0.389757 -0.865287,0.6825 -1.341204,0.875341 -0.471818,0.192809 -0.975288,0.288412 -1.508644,0.288412 -1.050313,0 -1.854206,-0.319852 -2.412175,-0.959876 -0.557982,-0.64413 -0.837218,-1.571571 -0.837218,-2.781874 0,-1.214441 0.279236,-2.14185 0.837218,-2.781874 0.557969,-0.644162 1.361862,-0.966548 2.412175,-0.966548 0.533356,0 1.036826,0.09721 1.508644,0.290015 0.475917,0.19281 0.922718,0.483916 1.341204,0.873673 V 15.202444 C 31.823502,14.911145 31.365726,14.694499 30.877492,14.550903 30.393367,14.403328 29.877175,14.3289 29.327402,14.3289 Z m 8.572756,0 c -1.292374,0 -2.326421,0.432394 -3.101845,1.298078 -0.771323,0.861578 -1.157179,2.019171 -1.157179,3.47156 0,1.452389 0.385856,2.60995 1.157179,3.471528 0.775424,0.861578 1.809471,1.291469 3.101845,1.291469 1.28827,0 2.317252,-0.429891 3.088575,-1.291469 0.771324,-0.865684 1.15718,-2.023277 1.15718,-3.471528 0,-1.452389 -0.385856,-2.609982 -1.15718,-3.47156 -0.771323,-0.865684 -1.800305,-1.298078 -3.088575,-1.298078 z m 6.19042,0.165861 v 9.189492 h 2.554744 c 1.772398,0 3.077229,-0.371503 3.914191,-1.114091 0.836962,-0.742588 1.254989,-1.906116 1.254989,-3.489782 9e-6,-1.575453 -0.417152,-2.733046 -1.250014,-3.471528 -0.832861,-0.74262 -2.138562,-1.114091 -3.919166,-1.114091 z m 9.705062,0 v 9.189492 h 5.920192 V 22.63641 H 55.039025 V 19.307451 H 59.4141 V 18.261245 H 55.039025 V 15.54071 h 4.565729 V 14.4946 Z m -15.895482,0.843869 c 0.90261,0 1.615125,0.336759 2.140281,1.009602 0.529257,0.672875 0.794114,1.589312 0.794114,2.750402 0,1.156984 -0.264864,2.072555 -0.794114,2.745398 -0.525156,0.672843 -1.237671,1.007965 -2.140281,1.007965 -0.90261,0 -1.62185,-0.335122 -2.155216,-1.007965 -0.529256,-0.672843 -0.792449,-1.588414 -0.792449,-2.745398 0,-1.16109 0.263196,-2.077527 0.792449,-2.750402 0.533366,-0.672843 1.252606,-1.009602 2.155216,-1.009602 z m 7.433805,0.179015 h 1.502013 c 1.267757,0 2.195176,0.286166 2.781874,0.860423 0.590804,0.570279 0.885292,1.471445 0.885292,2.70228 0,1.239048 -0.294475,2.146149 -0.885292,2.720534 -0.586698,0.574386 -1.514117,0.860424 -2.781874,0.860424 h -1.502013 z m -26.235506,3.580957 v 4.77461 h 4.774613 v -4.77461 z"
       id="rect821"
       inkscape:connector-curvature="0"
       inkscape:export-filename="/home/mustaf/projects/python/plain-blog/static/nav-logo.png"
       inkscape:export-xdpi="96"
       inkscape:export-ydpi="96" />
    <path
       style="fill:url(#linearGradient953);fill-opacity:1;stroke-width:0.84882027"
       d="m 0,25.83032 v 4.77461 h 4.7746141 v -4.77461 z m 9.5492285,0 v 4.77461 4.774612 H 14.323843 V 30.60493 h 4.774614 v -4.77461 h -4.774614 z m 9.5492285,4.77461 v 4.774612 h -4.774614 v 4.77461 h 4.774614 4.774614 v -4.77461 -4.774612 z m -4.774614,9.549222 H 9.5492285 v 4.774642 H 4.7746141 v 4.774611 h 4.7746144 4.7746145 v -4.774611 z m -9.5492289,4.774642 v -4.774642 h 4.7746144 v -4.77461 H 4.7746141 0 v 4.77461 4.774642 z m 14.3238429,0 v 4.774611 h 4.774614 v -4.774611 z"
       id="path951"
       inkscape:connector-curvature="0" />
    <text
       xml:space="preserve"
       style="font-style:normal;font-weight:normal;font-size:10.58333302px;line-height:1.25;font-family:sans-serif;letter-spacing:0px;word-spacing:0px;fill:#000000;fill-opacity:1;stroke:none;stroke-width:0.26458332"
       x="93.155052"
       y="10.056155"
       id="text960"><tspan
         sodipodi:role="line"
         x="93.155052"
         y="10.056155"
         style="stroke-width:0.26458332"
         id="tspan966">Kolory</tspan></text>
    <text
       xml:space="preserve"
       style="font-style:normal;font-weight:normal;font-size:10.58333302px;line-height:1.25;font-family:sans-serif;letter-spacing:0px;word-spacing:0px;fill:#000000;fill-opacity:1;stroke:none;stroke-width:0.26458332"
       x="89.429169"
       y="32.945835"
       id="text972"><tspan
         sodipodi:role="line"
         x="89.429169"
         y="32.945835"
         style="stroke-width:0.26458332"
         id="tspan974">Główny</tspan></text>
    <text
       xml:space="preserve"
       style="font-style:normal;font-weight:normal;font-size:10.58333302px;line-height:1.25;font-family:sans-serif;letter-spacing:0px;word-spacing:0px;fill:#000000;fill-opacity:1;stroke:none;stroke-width:0.26458332"
       x="157.82396"
       y="33.759739"
       id="text980"><tspan
         sodipodi:role="line"
         x="157.82396"
         y="33.759739"
         style="stroke-width:0.26458332"
         id="tspan982">Akcent</tspan></text>
    <rect
       style="fill:#3003bf;stroke-width:0.26458332;fill-opacity:1"
       id="rect986"
       width="35.586456"
       height="12.303124"
       x="91.148956"
       y="37.642189" />
    <rect
       y="37.642189"
       x="158.61771"
       height="12.303124"
       width="35.586456"
       id="rect988"
       style="fill:#d400aa;stroke-width:0.26458332;fill-opacity:1" />
  </g>
</svg>
